<svg width="19" height="19" viewBox="0 0 19 19" fill="none" xmlns="http://www.w3.org/2000/svg">
<path d="M9.29995 12.4002C11.012 12.4002 12.4 11.0123 12.4 9.3002C12.4 7.58811 11.012 6.2002 9.29995 6.2002C7.58787 6.2002 6.19995 7.58811 6.19995 9.3002C6.19995 11.0123 7.58787 12.4002 9.29995 12.4002Z" fill="url(#paint0_linear)"/>
<path d="M13.1742 0H5.42422C2.4335 0 0 2.43428 0 5.42578V13.1758C0 16.1665 2.43428 18.6 5.42578 18.6H13.1758C16.1665 18.6 18.6 16.1657 18.6 13.1742V5.42422C18.6 2.4335 16.1657 0 13.1742 0ZM9.3 13.95C6.73553 13.95 4.65 11.8645 4.65 9.3C4.65 6.73553 6.73553 4.65 9.3 4.65C11.8645 4.65 13.95 6.73553 13.95 9.3C13.95 11.8645 11.8645 13.95 9.3 13.95ZM14.725 4.65C14.2972 4.65 13.95 4.3028 13.95 3.875C13.95 3.4472 14.2972 3.1 14.725 3.1C15.1528 3.1 15.5 3.4472 15.5 3.875C15.5 4.3028 15.1528 4.65 14.725 4.65Z" fill="url(#paint1_linear)"/>
<defs>
<linearGradient id="paint0_linear" x1="14.4666" y1="9.3002" x2="6.51705" y2="9.28639" gradientUnits="userSpaceOnUse">
<stop stop-color="#FFE7AF"/>
<stop offset="1" stop-color="#98743F"/>
</linearGradient>
<linearGradient id="paint1_linear" x1="24.8" y1="9.30001" x2="0.951303" y2="9.25859" gradientUnits="userSpaceOnUse">
<stop stop-color="#FFE7AF"/>
<stop offset="1" stop-color="#98743F"/>
</linearGradient>
</defs>
</svg>
