<svg width="19" height="19" viewBox="0 0 19 19" fill="none" xmlns="http://www.w3.org/2000/svg">
<path d="M9.30825 12.4002C11.0203 12.4002 12.4083 11.0123 12.4083 9.3002C12.4083 7.58811 11.0203 6.2002 9.30825 6.2002C7.59617 6.2002 6.20825 7.58811 6.20825 9.3002C6.20825 11.0123 7.59617 12.4002 9.30825 12.4002Z" fill="url(#paint0_linear)"/>
<path d="M13.1825 0H5.43253C2.4418 0 0.00830078 2.43428 0.00830078 5.42578V13.1758C0.00830078 16.1665 2.44258 18.6 5.43408 18.6H13.1841C16.1748 18.6 18.6083 16.1657 18.6083 13.1742V5.42422C18.6083 2.4335 16.174 0 13.1825 0ZM9.3083 13.95C6.74383 13.95 4.6583 11.8645 4.6583 9.3C4.6583 6.73553 6.74383 4.65 9.3083 4.65C11.8728 4.65 13.9583 6.73553 13.9583 9.3C13.9583 11.8645 11.8728 13.95 9.3083 13.95ZM14.7333 4.65C14.3055 4.65 13.9583 4.3028 13.9583 3.875C13.9583 3.4472 14.3055 3.1 14.7333 3.1C15.1611 3.1 15.5083 3.4472 15.5083 3.875C15.5083 4.3028 15.1611 4.65 14.7333 4.65Z" fill="url(#paint1_linear)"/>
<defs>
<linearGradient id="paint0_linear" x1="14.4749" y1="9.3002" x2="6.52535" y2="9.28639" gradientUnits="userSpaceOnUse">
<stop stop-color="#FFE7AF"/>
<stop offset="1" stop-color="#98743F"/>
</linearGradient>
<linearGradient id="paint1_linear" x1="24.8083" y1="9.30001" x2="0.959604" y2="9.25859" gradientUnits="userSpaceOnUse">
<stop stop-color="#FFE7AF"/>
<stop offset="1" stop-color="#98743F"/>
</linearGradient>
</defs>
</svg>
