<svg width="265" height="81" viewBox="0 0 265 81" fill="none" xmlns="http://www.w3.org/2000/svg">
<path d="M46.3061 62.3231C57.0182 53.0253 63.8407 40.7509 65.8164 26.2671C67.9465 31.0848 69.1504 36.5469 69.1504 42.3773C69.1504 52.3809 66.5882 61.3718 61.3401 67.6931L65.2916 69.657C72.0523 63.0902 76.2507 53.9458 76.2507 43.8195C76.2507 34.2455 72.4845 25.5307 66.3721 19.056C66.3721 18.5343 66.4029 18.0126 66.4029 17.491C66.4029 14.4838 66.1868 11.5379 65.7238 8.65343L46.7691 0C47.7261 2.85379 48.4979 5.76895 49.0227 8.77617L49.1462 9.42058C49.7019 12.7347 50.0106 16.1101 50.0106 19.5776C50.0106 32.6805 45.5343 44.6787 38.4032 54.4982C30.1916 44.0957 25.6844 30.8393 25.6844 16.5704C25.6844 14.9747 25.8697 11.9982 25.9932 10.4332C25.9932 10.4332 22.69 11.9368 21.486 12.5812C20.2821 13.2563 18.8311 14.2383 17.5963 15.1895C17.5037 15.2509 17.442 15.3123 17.3493 15.3736C16.1145 16.3249 14.9723 17.3682 13.8918 18.4729C13.8301 18.5343 13.7683 18.5957 13.7066 18.657C13.2127 19.148 12.7496 19.6697 12.2865 20.222C12.2248 20.2834 12.1631 20.3448 12.1013 20.4368C6.76069 26.7274 3.51926 34.8592 3.51926 43.7274C3.51926 54.4675 8.24248 64.1029 15.7132 70.731L19.1399 68.4603C13.4288 62.139 10.6504 52.7798 10.6504 42.3466C10.6504 38.4188 11.2061 34.6751 12.2248 31.1462C15.4354 43.9115 22.443 54.3448 32.5995 61.5866C29.2346 64.9621 25.7462 68.5523 16.9789 73.0632C8.14987 77.6047 0 80.5812 0 80.5812C8.58206 79.63 15.7132 78.3411 22.9061 75.7328C27.9689 78.4025 33.7417 79.9061 39.885 79.9061C48.2509 79.9061 56.6169 76.5614 62.7602 71.8664C62.2663 71.6516 57.8826 69.8718 54.0238 67.6011C49.9488 65.2383 46.3678 62.3845 46.3061 62.3231ZM39.885 77.0523C34.8222 77.0523 30.4694 76.0397 26.7649 74.2599C31.9512 72.1119 36.6744 69.5036 40.9655 66.5271C45.8739 68.8592 51.3071 70.6083 57.2343 71.6823C52.7272 75.0578 46.9852 77.0523 39.885 77.0523Z" fill="url(#paint0_linear)"/>
<path d="M15.7131 70.7923L17.6888 69.5035C11.0825 63.1209 6.9458 53.9458 6.9458 43.7274C6.9458 29.7653 14.6944 17.7057 25.9004 12.1209C25.9004 12.1209 25.9004 11.231 26.0239 10.249C12.8112 15.6804 3.48828 28.6299 3.48828 43.7274C3.48828 54.4674 8.2115 64.1335 15.7131 70.7923Z" fill="url(#paint1_linear)"/>
<path d="M40.1628 61.4639C42.4164 59.2238 44.5465 56.7383 46.4604 53.9765C55.2895 41.1191 58.1913 28.3538 58.1604 14.6986L58.1296 12.3971C58.0678 9.97292 57.9444 7.51805 57.7283 5.0018L46.7691 0C47.7261 2.8231 48.467 5.73827 49.0227 8.7148C49.0536 8.89892 49.1153 9.3592 49.2079 9.85018C49.7327 13.0108 50.0106 16.2635 50.0106 19.5776C50.0106 32.6805 45.5343 44.6787 38.4032 54.4982C37.7549 55.296 36.9214 56.4007 35.9335 57.6282C31.766 53.3935 28.2158 48.361 24.8201 42.5C20.9304 35.8105 18.7694 27.7708 17.5346 20.8664C15.3428 24.0578 13.4288 27.1264 12.2557 31.1155C12.3483 31.4224 12.5953 32.3123 12.657 32.6191C13.0274 33.8773 13.3979 35.0433 13.7375 36.1173C17.1024 45.7834 22.8443 53.9152 30.5929 60.0523C30.7164 60.1444 30.809 60.2365 30.9325 60.2978C31.4573 60.7274 32.0129 61.1263 32.5686 61.5253L32.5995 61.556C32.0129 62.139 31.4264 62.7527 30.809 63.3357C30.3459 63.796 29.8829 64.2256 29.4198 64.6552C29.3272 64.7473 29.2037 64.8393 29.1111 64.9314C29.0802 64.9621 29.0494 64.9928 29.0185 65.0235L28.9876 65.0541C26.7958 67.018 24.0792 69.1047 19.9425 71.4368L17.9668 72.5415C17.6581 72.7256 17.3185 72.8791 16.9789 73.0632C16.9789 73.0632 16.948 73.0632 16.948 73.0938C13.9536 74.6895 10.8665 76.1011 7.99552 77.3285C3.30317 79.3845 0 80.5812 0 80.5812C0 80.5812 9.50818 79.3845 20.6525 74.444C26.2401 77.9115 32.8465 79.9368 39.9159 79.9368C48.5288 79.9368 56.4317 76.9603 62.6676 71.9892C62.7293 71.9585 62.7602 71.9278 62.8219 71.8664H62.7911C62.7911 71.8664 50.5971 69.6263 40.1628 61.4639ZM39.9159 78.6173C33.6182 78.6173 27.7219 76.7455 22.7209 73.4928C27.4441 71.222 32.3834 68.2762 36.9214 64.4404C39.5763 65.944 43.3734 67.8159 48.3127 69.4422C53.3755 71.0993 56.9874 71.713 59.3335 71.9278C53.8694 76.1011 47.1705 78.6173 39.9159 78.6173Z" fill="url(#paint2_linear)"/>
<path d="M66.2793 18.749C66.2793 18.749 66.3719 20.3447 66.2175 22.7075C70.3851 28.5378 72.8547 35.8104 72.8547 43.6967C72.8547 53.3934 69.1194 62.2003 63.0687 68.5216L65.3223 69.6263C72.1139 63.0595 76.3431 53.8537 76.3431 43.6967C76.3431 34.0306 72.5152 25.2544 66.2793 18.749Z" fill="url(#paint3_linear)"/>
<path d="M98.9774 24.9507L106.149 24.9507L106.149 43.2568L123.431 24.9507L132.424 24.9507L116.553 41.4143L133.012 62.9893L124.195 62.9893L111.615 46.3474L106.149 51.9938L106.149 62.9893L98.9774 62.9893L98.9774 24.9507Z" fill="white"/>
<path d="M132.366 62.6923L124.371 62.6923L111.616 45.8721L105.796 51.8751L105.796 62.6923L99.2714 62.6923L99.2714 25.3075L105.796 25.3075L105.796 44.089L123.548 25.3075L131.66 25.3075L116.083 41.4144L132.366 62.6923ZM133.659 63.3461L132.836 62.2763L116.965 41.4144L132.13 25.7235L133.189 24.5942L131.66 24.5942L123.548 24.5942L123.254 24.5942L123.078 24.7725L106.502 42.4843L106.502 25.3075L106.502 24.6537L105.855 24.6537L99.3302 24.6537L98.6836 24.6537L98.6836 25.3075L98.6836 62.6923L98.6836 63.3461L99.3302 63.3461L105.855 63.3461L106.502 63.3461L106.502 62.6923L106.502 52.1128L111.616 46.8825L123.901 63.1084L124.077 63.3461L124.371 63.3461L132.366 63.3461L133.659 63.3461Z" fill="black"/>
<path d="M140.301 24.9507L147.472 24.9507L147.472 40.5227L164.637 40.5227L164.637 24.9507L171.808 24.9507L171.808 62.9893L164.637 62.9893L164.637 47.2389L147.472 47.2389L147.472 62.9893L140.301 62.9893L140.301 24.9507Z" fill="white"/>
<path d="M171.514 62.6922L164.99 62.6922L164.99 46.9418L147.179 46.9418L147.179 62.6922L140.595 62.6922L140.595 25.3073L147.12 25.3073L147.12 40.8794L164.931 40.8794L164.931 25.3074L171.456 25.3074L171.456 62.6922L171.514 62.6922ZM172.161 63.346L172.161 62.6922L172.161 25.3074L172.161 24.6536L171.514 24.6536L164.99 24.6536L164.343 24.6536L164.343 25.3074L164.343 40.2256L147.825 40.2256L147.825 25.3073L147.825 24.6536L147.179 24.6536L140.595 24.6536L139.949 24.6536L139.949 25.3073L139.949 62.6922L139.949 63.346L140.595 63.346L147.12 63.346L147.767 63.346L147.767 62.6922L147.767 47.5956L164.284 47.5956L164.284 62.6922L164.284 63.346L164.931 63.346L171.456 63.346L172.161 63.346Z" fill="black"/>
<path d="M181.801 43.9702C181.801 32.9747 190.501 24.2971 201.67 24.2971C212.956 24.2971 221.42 32.6775 221.42 43.8514L221.42 43.9702C221.42 54.9658 212.721 63.6433 201.552 63.6433C190.266 63.6433 181.801 55.2629 181.801 44.0891L181.801 43.9702ZM213.896 43.9702C213.896 36.6002 208.606 31.0133 201.552 31.0133C194.557 31.0133 189.325 36.5408 189.325 43.8514L189.325 43.9702C189.325 51.3402 194.616 56.8677 201.67 56.8677C208.665 56.8677 213.896 51.3402 213.896 44.0297L213.896 43.9702Z" fill="white"/>
<path d="M221.068 43.9703C221.068 54.4903 212.956 63.2868 201.552 63.2868C190.09 63.2868 182.095 54.6092 182.095 44.0297L182.095 43.9108C182.095 33.3908 190.207 24.5944 201.611 24.5944C213.073 24.5944 221.068 33.2719 221.068 43.8514L221.068 43.9703ZM188.973 43.9108L188.973 44.0297C188.973 51.2808 194.263 57.2838 201.67 57.2838C209.076 57.2838 214.249 51.3997 214.249 44.1486L214.249 44.0297C214.249 36.7786 208.959 30.7162 201.552 30.7162C194.146 30.7162 188.973 36.6003 188.973 43.9108ZM221.714 43.9703L221.714 43.8514C221.714 32.5587 213.073 24 201.67 24C196.027 24 190.913 26.0802 187.15 29.9435C183.506 33.688 181.507 38.6805 181.507 44.0297L181.507 44.1486C181.507 55.5007 190.148 64.0594 201.611 64.0594C207.254 64.0594 212.368 61.9792 216.13 58.1159C219.716 54.312 221.714 49.3195 221.714 43.9703ZM189.619 43.9108C189.619 36.7786 194.733 31.37 201.552 31.37C208.43 31.37 213.602 36.7786 213.602 44.0297L213.602 44.1486C213.602 51.2808 208.488 56.63 201.67 56.63C194.792 56.63 189.619 51.2214 189.619 44.0297L189.619 43.9108Z" fill="black"/>
<path d="M231.354 24.9509L248.284 24.9509C252.927 24.9509 256.689 26.2585 259.276 28.7548C261.333 30.8945 262.45 33.7474 262.45 37.0757L262.45 37.1946C262.45 42.841 259.393 46.942 253.809 48.7251L263.978 62.9896L255.396 62.9896L246.285 49.9732L238.585 49.9732L238.585 62.9896L231.413 62.9896L231.413 24.9509L231.354 24.9509ZM238.526 43.4948L247.813 43.4948C252.281 43.4948 255.161 41.1768 255.161 37.5512L255.161 37.4324C255.161 33.6285 252.516 31.5483 247.754 31.5483L238.526 31.5482L238.526 43.4948Z" fill="white"/>
<path d="M263.391 62.6924L255.631 62.6924L246.403 49.6761L238.173 49.6761L238.173 62.6924L231.707 62.6924L231.707 25.3076L248.284 25.3076C252.986 25.3076 256.631 26.6746 259.041 29.052C261.039 31.0728 262.156 33.8663 262.156 37.1352L262.156 37.2541C262.156 43.3759 258.453 47.0609 253.339 48.6063L263.391 62.6924ZM238.232 31.2511L238.232 43.792L247.813 43.792C252.516 43.792 255.455 41.3551 255.455 37.5513L255.455 37.4324C255.455 33.4502 252.575 31.2511 247.755 31.2511L238.232 31.2511ZM264.625 63.3462L263.861 62.3358L254.338 48.9034C259.805 47.0015 262.803 42.9005 262.803 37.1947L262.803 37.0758C262.803 33.688 261.686 30.7757 259.511 28.5765C256.866 26.0208 252.986 24.6538 248.284 24.6538L231.707 24.6538L231.061 24.6538L231.061 25.3076L231.061 62.6924L231.061 63.3462L231.707 63.3462L238.232 63.3462L238.879 63.3462L238.879 62.6924L238.879 50.3299L246.109 50.3299L255.102 63.1085L255.279 63.4057L255.631 63.4057L263.391 63.4057L264.625 63.4057L264.625 63.3462ZM238.879 31.9049L247.755 31.9049C250.4 31.9049 254.808 32.6181 254.808 37.4324L254.808 37.5513C254.808 40.9985 252.104 43.1382 247.813 43.1382L238.879 43.1382L238.879 31.9049Z" fill="black"/>
<path d="M231.707 62.6924L231.707 25.3076L234.352 25.3076L234.352 62.6924L231.707 62.6924ZM258.218 62.6924L249.048 49.6761L246.403 49.6761L255.573 62.6924L258.218 62.6924ZM216.835 44.1486L216.835 44.0297C216.835 36.7786 211.545 30.7162 204.139 30.7162C203.668 30.7162 203.257 30.7162 202.845 30.7756C209.547 31.4294 214.19 37.1947 214.19 44.0297L214.19 44.1486C214.19 50.9837 209.605 56.5706 202.963 57.2244C203.374 57.2838 203.845 57.2838 204.256 57.2838C211.663 57.2838 216.835 51.3997 216.835 44.1486ZM184.741 44.1486L184.741 44.0297C184.741 33.9257 192.206 25.367 202.963 24.7132C202.551 24.7132 202.081 24.6538 201.67 24.6538C190.207 24.6538 182.154 33.4502 182.154 43.9703L182.154 44.0892C182.154 54.6092 190.148 63.3462 201.611 63.3462C202.081 63.3462 202.493 63.3462 202.904 63.2868C192.088 62.6924 184.741 54.2526 184.741 44.1486ZM258.1 37.6107L258.1 37.4918C258.1 33.5097 255.22 31.3106 250.4 31.3106L247.755 31.3106C252.575 31.3106 255.455 33.5097 255.455 37.4918L255.455 37.6107C255.455 41.4146 252.457 43.8514 247.814 43.8514L250.459 43.8514C255.102 43.8514 258.1 41.4146 258.1 37.6107ZM99.2717 25.3076L99.2717 62.6924L101.917 62.6924L101.917 25.3076L99.2717 25.3076ZM164.931 46.9421L164.931 62.6924L167.576 62.6924L167.576 46.9421L164.931 46.9421ZM164.931 40.8797L167.576 40.8797L167.576 25.3076L164.931 25.3076L164.931 40.8797ZM140.595 25.3076L140.595 62.6924L143.241 62.6924L143.241 25.3076L140.595 25.3076ZM112.792 47.4175L124.372 62.7519L127.017 62.7519L114.261 45.9317L112.792 47.4175ZM126.194 25.3076L123.549 25.3076L108.442 41.2957L108.442 44.0892L126.194 25.3076Z" fill="black"/>
<defs>
<linearGradient id="paint0_linear" x1="0" y1="40.2844" x2="76.2501" y2="40.2844" gradientUnits="userSpaceOnUse">
<stop offset="0.039106" stop-color="#A06F28"/>
<stop offset="0.0632737" stop-color="#A97A33"/>
<stop offset="0.1572" stop-color="#C89E5A"/>
<stop offset="0.2512" stop-color="#E1BD7C"/>
<stop offset="0.3439" stop-color="#F2D496"/>
<stop offset="0.435" stop-color="#FDE2A6"/>
<stop offset="0.5225" stop-color="#FFE7AC"/>
<stop offset="0.608" stop-color="#FDE2A7"/>
<stop offset="0.6893" stop-color="#F4D598"/>
<stop offset="0.7688" stop-color="#E4C07F"/>
<stop offset="0.8473" stop-color="#CDA460"/>
<stop offset="0.9243" stop-color="#B0813B"/>
<stop offset="0.9609" stop-color="#A06F28"/>
</linearGradient>
<linearGradient id="paint1_linear" x1="3.48087" y1="40.5064" x2="26.017" y2="40.5064" gradientUnits="userSpaceOnUse">
<stop offset="0.039106" stop-color="#A06F28"/>
<stop offset="0.0632737" stop-color="#A97A33"/>
<stop offset="0.1572" stop-color="#C89E5A"/>
<stop offset="0.2512" stop-color="#E1BD7C"/>
<stop offset="0.3439" stop-color="#F2D496"/>
<stop offset="0.435" stop-color="#FDE2A6"/>
<stop offset="0.5225" stop-color="#FFE7AC"/>
<stop offset="0.608" stop-color="#FDE2A7"/>
<stop offset="0.6893" stop-color="#F4D598"/>
<stop offset="0.7688" stop-color="#E4C07F"/>
<stop offset="0.8473" stop-color="#CDA460"/>
<stop offset="0.9243" stop-color="#B0813B"/>
<stop offset="0.9609" stop-color="#A06F28"/>
</linearGradient>
<linearGradient id="paint2_linear" x1="3.29616e-05" y1="40.2843" x2="62.7942" y2="40.2843" gradientUnits="userSpaceOnUse">
<stop offset="0.039106" stop-color="#A06F28"/>
<stop offset="0.0632737" stop-color="#A97A33"/>
<stop offset="0.1572" stop-color="#C89E5A"/>
<stop offset="0.2512" stop-color="#E1BD7C"/>
<stop offset="0.3439" stop-color="#F2D496"/>
<stop offset="0.435" stop-color="#FDE2A6"/>
<stop offset="0.5225" stop-color="#FFE7AC"/>
<stop offset="0.608" stop-color="#FDE2A7"/>
<stop offset="0.6893" stop-color="#F4D598"/>
<stop offset="0.7688" stop-color="#E4C07F"/>
<stop offset="0.8473" stop-color="#CDA460"/>
<stop offset="0.9243" stop-color="#B0813B"/>
<stop offset="0.9609" stop-color="#A06F28"/>
</linearGradient>
<linearGradient id="paint3_linear" x1="63.0711" y1="44.1991" x2="76.3291" y2="44.1991" gradientUnits="userSpaceOnUse">
<stop offset="0.039106" stop-color="#A06F28"/>
<stop offset="0.0632737" stop-color="#A97A33"/>
<stop offset="0.1572" stop-color="#C89E5A"/>
<stop offset="0.2512" stop-color="#E1BD7C"/>
<stop offset="0.3439" stop-color="#F2D496"/>
<stop offset="0.435" stop-color="#FDE2A6"/>
<stop offset="0.5225" stop-color="#FFE7AC"/>
<stop offset="0.608" stop-color="#FDE2A7"/>
<stop offset="0.6893" stop-color="#F4D598"/>
<stop offset="0.7688" stop-color="#E4C07F"/>
<stop offset="0.8473" stop-color="#CDA460"/>
<stop offset="0.9243" stop-color="#B0813B"/>
<stop offset="0.9609" stop-color="#A06F28"/>
</linearGradient>
</defs>
</svg>
