<svg width="117" height="36" viewBox="0 0 117 36" fill="none" xmlns="http://www.w3.org/2000/svg">
<path d="M20.4162 27.4669C25.1373 23.3692 28.144 17.9597 29.0148 11.5764C29.9535 13.6996 30.4841 16.1069 30.4841 18.6764C30.4841 23.0852 29.3549 27.0477 27.042 29.8336L28.7835 30.6991C31.763 27.805 33.6134 23.7749 33.6134 19.312C33.6134 15.0926 31.9535 11.2518 29.2597 8.3983C29.2597 8.1684 29.2733 7.93849 29.2733 7.70859C29.2733 6.38325 29.178 5.08496 28.974 3.81372L20.6203 0C21.0421 1.25772 21.3822 2.54248 21.6135 3.86782L21.6679 4.15182C21.9128 5.61239 22.0489 7.10001 22.0489 8.62821C22.0489 14.4029 20.0761 19.6907 16.9333 24.0183C13.3143 19.4338 11.3279 13.5915 11.3279 7.30287C11.3279 6.59963 11.4095 5.28782 11.464 4.5981C11.464 4.5981 10.0082 5.26077 9.47758 5.54477C8.94697 5.8423 8.30752 6.27506 7.76331 6.6943C7.7225 6.72135 7.69529 6.74839 7.65447 6.77544C7.11026 7.19468 6.60686 7.65449 6.13068 8.14135C6.10347 8.1684 6.07626 8.19545 6.04905 8.22249C5.83136 8.43887 5.62728 8.66878 5.4232 8.91221C5.39599 8.93926 5.36878 8.9663 5.34157 9.00688C2.98786 11.7793 1.5593 15.3631 1.5593 19.2715C1.5593 24.0048 3.64091 28.2513 6.93339 31.1724L8.44358 30.1717C5.9266 27.3858 4.70212 23.261 4.70212 18.6629C4.70212 16.9318 4.94702 15.2819 5.39599 13.7267C6.81094 19.3526 9.89934 23.9507 14.3755 27.1423C12.8925 28.63 11.3551 30.2123 7.49121 32.2003C3.6001 34.2018 0.00830078 35.5136 0.00830078 35.5136C3.79057 35.0944 6.93339 34.5264 10.1034 33.3768C12.3347 34.5534 14.8789 35.2161 17.5863 35.2161C21.2734 35.2161 24.9604 33.742 27.6678 31.6728C27.4502 31.5782 25.5182 30.7938 23.8175 29.793C22.0217 28.7517 20.4434 27.494 20.4162 27.4669ZM17.5863 33.9584C15.3551 33.9584 13.4367 33.5121 11.8041 32.7277C14.0898 31.781 16.1714 30.6315 18.0625 29.3197C20.2258 30.3475 22.6203 31.1183 25.2325 31.5917C23.2461 33.0793 20.7155 33.9584 17.5863 33.9584Z" fill="url(#paint0_linear)"/>
<path d="M6.93335 31.1996L7.80408 30.6316C4.89255 27.8187 3.06945 23.775 3.06945 19.2716C3.06945 13.1183 6.48437 7.80338 11.4231 5.34204C11.4231 5.34204 11.4231 4.94985 11.4775 4.51709C5.65445 6.91081 1.54565 12.6179 1.54565 19.2716C1.54565 24.0049 3.62726 28.2649 6.93335 31.1996Z" fill="url(#paint1_linear)"/>
<path d="M17.7088 27.0882C18.702 26.101 19.6407 25.0056 20.4843 23.7884C24.3754 18.1219 25.6543 12.496 25.6407 6.47792L25.6271 5.46363C25.5998 4.39525 25.5454 3.31334 25.4502 2.20439L20.6203 0C21.0421 1.24419 21.3686 2.52896 21.6135 3.84077C21.6271 3.92191 21.6543 4.12477 21.6951 4.34115C21.9264 5.73411 22.0489 7.16763 22.0489 8.62821C22.0489 14.4029 20.0761 19.6907 16.9333 24.0183C16.6476 24.37 16.2802 24.8568 15.8449 25.3978C14.0081 23.5315 12.4435 21.3136 10.9469 18.7305C9.23268 15.7823 8.28031 12.2391 7.7361 9.19621C6.77013 10.6027 5.9266 11.9551 5.4096 13.7132C5.45041 13.8484 5.55926 14.2406 5.58647 14.3758C5.74973 14.9303 5.91299 15.4442 6.06265 15.9176C7.54563 20.1776 10.0762 23.7614 13.4911 26.4661C13.5456 26.5067 13.5864 26.5473 13.6408 26.5743C13.8721 26.7637 14.117 26.9395 14.3619 27.1153L14.3755 27.1288C14.117 27.3858 13.8585 27.6562 13.5864 27.9132C13.3823 28.1161 13.1782 28.3054 12.9741 28.4947C12.9333 28.5353 12.8789 28.5759 12.8381 28.6164C12.8245 28.63 12.8109 28.6435 12.7973 28.657L12.7837 28.6705C11.8177 29.5361 10.6204 30.4557 8.79731 31.4835L7.92658 31.9703C7.79052 32.0515 7.64087 32.1191 7.49121 32.2003C7.49121 32.2003 7.4776 32.2003 7.4776 32.2138C6.15789 32.917 4.79736 33.5391 3.53207 34.0801C1.46407 34.9862 0.00830078 35.5136 0.00830078 35.5136C0.00830078 35.5136 4.19873 34.9862 9.11024 32.8088C11.5728 34.337 14.4843 35.2296 17.5999 35.2296C21.3958 35.2296 24.8788 33.9178 27.627 31.7269C27.6542 31.7134 27.6678 31.6999 27.6951 31.6728H27.6814C27.6814 31.6728 22.3074 30.6856 17.7088 27.0882ZM17.5999 34.6481C14.8245 34.6481 12.2258 33.8231 10.0218 32.3896C12.1034 31.3888 14.2802 30.0905 16.2802 28.4001C17.4503 29.0627 19.1237 29.8877 21.3006 30.6044C23.5318 31.3347 25.1237 31.6052 26.1577 31.6999C23.7495 33.5391 20.7972 34.6481 17.5999 34.6481Z" fill="url(#paint2_linear)"/>
<path d="M29.2187 8.26318C29.2187 8.26318 29.2595 8.96642 29.1914 10.0078C31.0282 12.5773 32.1166 15.7824 32.1166 19.2581C32.1166 23.5316 30.4703 27.4129 27.8037 30.1989L28.7969 30.6857C31.7901 27.7916 33.654 23.7345 33.654 19.2581C33.654 14.9981 31.9669 11.1302 29.2187 8.26318Z" fill="url(#paint3_linear)"/>
<path d="M43.6294 10.9963L46.79 10.9963L46.79 19.0642L54.4064 10.9963L58.3701 10.9963L51.3754 18.2521L58.6291 27.7607L54.7432 27.7606L49.1993 20.4263L46.79 22.9147L46.79 27.7606L43.6294 27.7606L43.6294 10.9963Z" fill="white"/>
<path d="M58.3444 27.6296L54.8211 27.6296L49.1995 20.2166L46.6348 22.8623L46.6348 27.6296L43.7592 27.6296L43.7592 11.1534L46.6348 11.1534L46.6348 19.4308L54.4584 11.1534L58.0335 11.1534L51.1683 18.2521L58.3444 27.6296ZM58.9143 27.9178L58.5516 27.4463L51.5569 18.2521L58.2407 11.3368L58.7071 10.8391L58.0335 10.8391L54.4584 10.8391L54.3289 10.8391L54.2512 10.9177L46.9456 18.7236L46.9456 11.1534L46.9456 10.8653L46.6607 10.8653L43.7851 10.8653L43.5001 10.8653L43.5001 11.1534L43.5001 27.6296L43.5001 27.9177L43.7851 27.9177L46.6607 27.9178L46.9456 27.9178L46.9456 27.6296L46.9456 22.967L49.1995 20.6619L54.6139 27.813L54.6916 27.9178L54.8211 27.9178L58.3444 27.9178L58.9143 27.9178Z" fill="black"/>
<path d="M61.8422 10.9963L65.0027 10.9963L65.0027 17.8592L72.5673 17.8592L72.5673 10.9963L75.7279 10.9963L75.7279 27.7607L72.5673 27.7606L72.5673 20.8192L65.0027 20.8192L65.0027 27.7606L61.8422 27.7606L61.8422 10.9963Z" fill="white"/>
<path d="M75.5978 27.6295L72.7223 27.6295L72.7223 20.6881L64.8727 20.6881L64.8727 27.6295L61.9712 27.6295L61.9712 11.1534L64.8468 11.1534L64.8468 18.0163L72.6963 18.0163L72.6963 11.1534L75.5719 11.1534L75.5719 27.6295L75.5978 27.6295ZM75.8828 27.9177L75.8828 27.6295L75.8828 11.1534L75.8828 10.8652L75.5978 10.8652L72.7223 10.8652L72.4373 10.8652L72.4373 11.1534L72.4373 17.7281L65.1576 17.7281L65.1576 11.1534L65.1576 10.8652L64.8727 10.8652L61.9712 10.8652L61.6862 10.8652L61.6862 11.1534L61.6862 27.6295L61.6862 27.9177L61.9712 27.9177L64.8468 27.9177L65.1317 27.9177L65.1317 27.6295L65.1317 20.9762L72.4114 20.9762L72.4114 27.6295L72.4114 27.9177L72.6963 27.9177L75.5719 27.9177L75.8828 27.9177Z" fill="black"/>
<path d="M80.1316 19.3785C80.1316 14.5326 83.9657 10.7083 88.8879 10.7083C93.8619 10.7083 97.5924 14.4016 97.5924 19.3262L97.5924 19.3785C97.5924 24.2245 93.7583 28.0488 88.8361 28.0488C83.8621 28.0488 80.1316 24.3554 80.1316 19.4309L80.1316 19.3785ZM94.2764 19.3785C94.2764 16.1305 91.9448 13.6682 88.8361 13.6682C85.7533 13.6682 83.4476 16.1043 83.4476 19.3262L83.4476 19.3785C83.4476 22.6266 85.7792 25.0627 88.8879 25.0627C91.9708 25.0627 94.2764 22.6266 94.2764 19.4047L94.2764 19.3785Z" fill="white"/>
<path d="M97.4366 19.3784C97.4366 24.0148 93.8615 27.8915 88.8357 27.8915C83.784 27.8915 80.2608 24.0672 80.2608 19.4046L80.2608 19.3522C80.2608 14.7158 83.8358 10.8391 88.8616 10.8391C93.9133 10.8391 97.4366 14.6634 97.4366 19.326L97.4366 19.3784ZM83.2918 19.3522L83.2918 19.4046C83.2918 22.6003 85.6233 25.2459 88.8875 25.2459C92.1517 25.2459 94.4315 22.6527 94.4315 19.457L94.4315 19.4046C94.4315 16.2089 92.0999 13.5371 88.8357 13.5371C85.5715 13.5371 83.2918 16.1303 83.2918 19.3522ZM97.7216 19.3784L97.7216 19.326C97.7216 14.3491 93.9133 10.5771 88.8875 10.5771C86.4005 10.5771 84.1467 11.4939 82.4887 13.1966C80.8825 14.8468 80.0017 17.0471 80.0017 19.4046L80.0017 19.457C80.0017 24.4601 83.8099 28.2321 88.8616 28.2321C91.3486 28.2321 93.6025 27.3153 95.2605 25.6126C96.8407 23.9362 97.7216 21.7359 97.7216 19.3784ZM83.5768 19.3522C83.5768 16.2089 85.8306 13.8252 88.8357 13.8252C91.8667 13.8252 94.1465 16.2089 94.1465 19.4046L94.1465 19.457C94.1465 22.6003 91.8927 24.9578 88.8875 24.9578C85.8565 24.9578 83.5768 22.5741 83.5768 19.4046L83.5768 19.3522Z" fill="black"/>
<path d="M101.97 10.9963L109.431 10.9963C111.478 10.9963 113.136 11.5726 114.276 12.6728C115.183 13.6158 115.675 14.8731 115.675 16.34L115.675 16.3924C115.675 18.8808 114.328 20.6882 111.867 21.474L116.348 27.7607L112.566 27.7606L108.551 22.0241L105.157 22.0241L105.157 27.7606L101.996 27.7606L101.996 10.9963L101.97 10.9963ZM105.131 19.1689L109.224 19.1689C111.193 19.1689 112.462 18.1474 112.462 16.5495L112.462 16.4971C112.462 14.8207 111.297 13.9039 109.198 13.9039L105.131 13.9039L105.131 19.1689Z" fill="white"/>
<path d="M116.089 27.6295L112.67 27.6295L108.602 21.893L104.975 21.893L104.975 27.6295L102.126 27.6295L102.126 11.1534L109.431 11.1534C111.504 11.1534 113.11 11.7558 114.172 12.8036C115.053 13.6942 115.545 14.9253 115.545 16.366L115.545 16.4184C115.545 19.1164 113.913 20.7405 111.659 21.4215L116.089 27.6295ZM105.001 13.7728L105.001 19.2998L109.224 19.2998C111.297 19.2998 112.592 18.2258 112.592 16.5494L112.592 16.497C112.592 14.742 111.323 13.7728 109.198 13.7728L105.001 13.7728ZM116.633 27.9177L116.297 27.4724L112.1 21.5525C114.509 20.7143 115.83 18.9069 115.83 16.3922L115.83 16.3398C115.83 14.8468 115.338 13.5632 114.379 12.5941C113.214 11.4677 111.504 10.8652 109.431 10.8652L102.126 10.8652L101.841 10.8652L101.841 11.1534L101.841 27.6295L101.841 27.9177L102.126 27.9177L105.001 27.9177L105.286 27.9177L105.286 27.6295L105.286 22.1811L108.473 22.1811L112.436 27.8129L112.514 27.9439L112.67 27.9439L116.089 27.9439L116.633 27.9439L116.633 27.9177ZM105.286 14.0609L109.198 14.0609C110.364 14.0609 112.307 14.3753 112.307 16.497L112.307 16.5494C112.307 18.0686 111.115 19.0116 109.224 19.0116L105.286 19.0116L105.286 14.0609Z" fill="black"/>
<path d="M102.126 27.6295L102.126 11.1534L103.292 11.1534L103.292 27.6295L102.126 27.6295ZM113.809 27.6295L109.768 21.893L108.602 21.893L112.644 27.6295L113.809 27.6295ZM95.5715 19.4569L95.5715 19.4046C95.5715 16.2089 93.2399 13.537 89.9757 13.537C89.7685 13.537 89.5871 13.537 89.4058 13.5632C92.3591 13.8514 94.4057 16.3922 94.4057 19.4046L94.4057 19.4569C94.4057 22.4693 92.385 24.9315 89.4576 25.2197C89.6389 25.2459 89.8462 25.2459 90.0275 25.2459C93.2917 25.2459 95.5715 22.6526 95.5715 19.4569ZM81.4267 19.4569L81.4267 19.4046C81.4267 14.9515 84.7168 11.1796 89.4576 10.8914C89.2762 10.8914 89.069 10.8652 88.8877 10.8652C83.8359 10.8652 80.2868 14.742 80.2868 19.3784L80.2868 19.4307C80.2868 24.0671 83.81 27.9177 88.8618 27.9177C89.069 27.9177 89.2503 27.9177 89.4317 27.8915C84.6649 27.6295 81.4267 23.91 81.4267 19.4569ZM113.758 16.5756L113.758 16.5232C113.758 14.7682 112.488 13.799 110.364 13.799L109.198 13.799C111.322 13.799 112.592 14.7682 112.592 16.5232L112.592 16.5756C112.592 18.252 111.271 19.326 109.224 19.326L110.39 19.326C112.436 19.326 113.758 18.252 113.758 16.5756ZM43.759 11.1534L43.759 27.6295L44.9248 27.6295L44.9248 11.1534L43.759 11.1534ZM72.6963 20.6881L72.6963 27.6295L73.862 27.6295L73.862 20.6881L72.6963 20.6881ZM72.6963 18.0163L73.862 18.0163L73.862 11.1534L72.6963 11.1534L72.6963 18.0163ZM61.9711 11.1534L61.9711 27.6295L63.1369 27.6295L63.1369 11.1534L61.9711 11.1534ZM49.7174 20.8976L54.821 27.6557L55.9867 27.6557L50.3651 20.2428L49.7174 20.8976ZM55.6241 11.1534L54.4583 11.1534L47.8004 18.1996L47.8004 19.4307L55.6241 11.1534Z" fill="black"/>
<defs>
<linearGradient id="paint0_linear" x1="0.00830078" y1="17.754" x2="33.6131" y2="17.754" gradientUnits="userSpaceOnUse">
<stop offset="0.039106" stop-color="#A06F28"/>
<stop offset="0.0632737" stop-color="#A97A33"/>
<stop offset="0.1572" stop-color="#C89E5A"/>
<stop offset="0.2512" stop-color="#E1BD7C"/>
<stop offset="0.3439" stop-color="#F2D496"/>
<stop offset="0.435" stop-color="#FDE2A6"/>
<stop offset="0.5225" stop-color="#FFE7AC"/>
<stop offset="0.608" stop-color="#FDE2A7"/>
<stop offset="0.6893" stop-color="#F4D598"/>
<stop offset="0.7688" stop-color="#E4C07F"/>
<stop offset="0.8473" stop-color="#CDA460"/>
<stop offset="0.9243" stop-color="#B0813B"/>
<stop offset="0.9609" stop-color="#A06F28"/>
</linearGradient>
<linearGradient id="paint1_linear" x1="1.54239" y1="17.8521" x2="11.4745" y2="17.8521" gradientUnits="userSpaceOnUse">
<stop offset="0.039106" stop-color="#A06F28"/>
<stop offset="0.0632737" stop-color="#A97A33"/>
<stop offset="0.1572" stop-color="#C89E5A"/>
<stop offset="0.2512" stop-color="#E1BD7C"/>
<stop offset="0.3439" stop-color="#F2D496"/>
<stop offset="0.435" stop-color="#FDE2A6"/>
<stop offset="0.5225" stop-color="#FFE7AC"/>
<stop offset="0.608" stop-color="#FDE2A7"/>
<stop offset="0.6893" stop-color="#F4D598"/>
<stop offset="0.7688" stop-color="#E4C07F"/>
<stop offset="0.8473" stop-color="#CDA460"/>
<stop offset="0.9243" stop-color="#B0813B"/>
<stop offset="0.9609" stop-color="#A06F28"/>
</linearGradient>
<linearGradient id="paint2_linear" x1="0.00831531" y1="17.754" x2="27.6828" y2="17.754" gradientUnits="userSpaceOnUse">
<stop offset="0.039106" stop-color="#A06F28"/>
<stop offset="0.0632737" stop-color="#A97A33"/>
<stop offset="0.1572" stop-color="#C89E5A"/>
<stop offset="0.2512" stop-color="#E1BD7C"/>
<stop offset="0.3439" stop-color="#F2D496"/>
<stop offset="0.435" stop-color="#FDE2A6"/>
<stop offset="0.5225" stop-color="#FFE7AC"/>
<stop offset="0.608" stop-color="#FDE2A7"/>
<stop offset="0.6893" stop-color="#F4D598"/>
<stop offset="0.7688" stop-color="#E4C07F"/>
<stop offset="0.8473" stop-color="#CDA460"/>
<stop offset="0.9243" stop-color="#B0813B"/>
<stop offset="0.9609" stop-color="#A06F28"/>
</linearGradient>
<linearGradient id="paint3_linear" x1="27.8048" y1="19.4795" x2="33.6478" y2="19.4795" gradientUnits="userSpaceOnUse">
<stop offset="0.039106" stop-color="#A06F28"/>
<stop offset="0.0632737" stop-color="#A97A33"/>
<stop offset="0.1572" stop-color="#C89E5A"/>
<stop offset="0.2512" stop-color="#E1BD7C"/>
<stop offset="0.3439" stop-color="#F2D496"/>
<stop offset="0.435" stop-color="#FDE2A6"/>
<stop offset="0.5225" stop-color="#FFE7AC"/>
<stop offset="0.608" stop-color="#FDE2A7"/>
<stop offset="0.6893" stop-color="#F4D598"/>
<stop offset="0.7688" stop-color="#E4C07F"/>
<stop offset="0.8473" stop-color="#CDA460"/>
<stop offset="0.9243" stop-color="#B0813B"/>
<stop offset="0.9609" stop-color="#A06F28"/>
</linearGradient>
</defs>
</svg>
