<svg width="117" height="36" viewBox="0 0 117 36" fill="none" xmlns="http://www.w3.org/2000/svg">
<path d="M20.4079 27.4669C25.129 23.3692 28.1357 17.9597 29.0065 11.5764C29.9452 13.6996 30.4758 16.1069 30.4758 18.6764C30.4758 23.0852 29.3466 27.0477 27.0337 29.8336L28.7752 30.6991C31.7547 27.805 33.6051 23.7749 33.6051 19.312C33.6051 15.0926 31.9452 11.2518 29.2514 8.3983C29.2514 8.1684 29.265 7.93849 29.265 7.70859C29.265 6.38325 29.1697 5.08496 28.9657 3.81372L20.612 0C21.0338 1.25772 21.3739 2.54248 21.6052 3.86782L21.6596 4.15182C21.9045 5.61239 22.0406 7.10001 22.0406 8.62821C22.0406 14.4029 20.0678 19.6907 16.925 24.0183C13.306 19.4338 11.3196 13.5915 11.3196 7.30287C11.3196 6.59963 11.4012 5.28782 11.4556 4.5981C11.4556 4.5981 9.99988 5.26077 9.46928 5.54477C8.93867 5.8423 8.29922 6.27506 7.75501 6.6943C7.7142 6.72135 7.68699 6.74839 7.64617 6.77544C7.10196 7.19468 6.59856 7.65449 6.12238 8.14135C6.09517 8.1684 6.06796 8.19545 6.04075 8.22249C5.82306 8.43887 5.61898 8.66878 5.4149 8.91221C5.38769 8.93926 5.36048 8.9663 5.33327 9.00688C2.97956 11.7793 1.551 15.3631 1.551 19.2715C1.551 24.0048 3.63261 28.2513 6.92509 31.1724L8.43528 30.1717C5.9183 27.3858 4.69382 23.261 4.69382 18.6629C4.69382 16.9318 4.93872 15.2819 5.38769 13.7267C6.80264 19.3526 9.89104 23.9507 14.3672 27.1423C12.8842 28.63 11.3468 30.2123 7.48291 32.2003C3.5918 34.2018 0 35.5136 0 35.5136C3.78227 35.0944 6.92509 34.5264 10.0951 33.3768C12.3264 34.5534 14.8706 35.2161 17.578 35.2161C21.2651 35.2161 24.9521 33.742 27.6595 31.6728C27.4419 31.5782 25.5099 30.7938 23.8092 29.793C22.0134 28.7517 20.4351 27.494 20.4079 27.4669ZM17.578 33.9584C15.3468 33.9584 13.4284 33.5121 11.7958 32.7277C14.0815 31.781 16.1631 30.6315 18.0542 29.3197C20.2175 30.3475 22.612 31.1183 25.2242 31.5917C23.2378 33.0793 20.7072 33.9584 17.578 33.9584Z" fill="url(#paint0_linear)"/>
<path d="M6.92505 31.1991L7.79578 30.6311C4.88425 27.8182 3.06115 23.7745 3.06115 19.2711C3.06115 13.1178 6.47607 7.80289 11.4148 5.34156C11.4148 5.34156 11.4148 4.94936 11.4692 4.5166C5.64615 6.91032 1.53735 12.6174 1.53735 19.2711C1.53735 24.0045 3.61896 28.2645 6.92505 31.1991Z" fill="url(#paint1_linear)"/>
<path d="M17.7005 27.0882C18.6937 26.101 19.6324 25.0056 20.476 23.7884C24.3671 18.1219 25.646 12.496 25.6324 6.47792L25.6188 5.46363C25.5915 4.39525 25.5371 3.31334 25.4419 2.20439L20.612 0C21.0338 1.24419 21.3603 2.52896 21.6052 3.84077C21.6188 3.92191 21.646 4.12477 21.6868 4.34115C21.9181 5.73411 22.0406 7.16763 22.0406 8.62821C22.0406 14.4029 20.0678 19.6907 16.925 24.0183C16.6393 24.37 16.2719 24.8568 15.8366 25.3978C13.9998 23.5315 12.4352 21.3136 10.9386 18.7305C9.22438 15.7823 8.27201 12.2391 7.7278 9.19621C6.76183 10.6027 5.9183 11.9551 5.4013 13.7132C5.44211 13.8484 5.55096 14.2406 5.57817 14.3758C5.74143 14.9303 5.90469 15.4442 6.05435 15.9176C7.53733 20.1776 10.0679 23.7614 13.4828 26.4661C13.5373 26.5067 13.5781 26.5473 13.6325 26.5743C13.8638 26.7637 14.1087 26.9395 14.3536 27.1153L14.3672 27.1288C14.1087 27.3858 13.8502 27.6562 13.5781 27.9132C13.374 28.1161 13.1699 28.3054 12.9658 28.4947C12.925 28.5353 12.8706 28.5759 12.8298 28.6164C12.8162 28.63 12.8026 28.6435 12.789 28.657L12.7754 28.6705C11.8094 29.5361 10.6121 30.4557 8.78901 31.4835L7.91828 31.9703C7.78222 32.0515 7.63256 32.1191 7.48291 32.2003C7.48291 32.2003 7.4693 32.2003 7.4693 32.2138C6.14959 32.917 4.78906 33.5391 3.52377 34.0801C1.45577 34.9862 0 35.5136 0 35.5136C0 35.5136 4.19043 34.9862 9.10194 32.8088C11.5645 34.337 14.476 35.2296 17.5916 35.2296C21.3875 35.2296 24.8705 33.9178 27.6187 31.7269C27.6459 31.7134 27.6595 31.6999 27.6868 31.6728H27.6731C27.6731 31.6728 22.2991 30.6856 17.7005 27.0882ZM17.5916 34.6481C14.8162 34.6481 12.2175 33.8231 10.0135 32.3896C12.0951 31.3888 14.2719 30.0905 16.2719 28.4001C17.442 29.0627 19.1154 29.8877 21.2923 30.6044C23.5235 31.3347 25.1154 31.6052 26.1494 31.6999C23.7412 33.5391 20.7889 34.6481 17.5916 34.6481Z" fill="url(#paint2_linear)"/>
<path d="M29.2104 8.2627C29.2104 8.2627 29.2512 8.96594 29.1831 10.0073C31.0199 12.5768 32.1083 15.7819 32.1083 19.2576C32.1083 23.5311 30.462 27.4125 27.7954 30.1984L28.7886 30.6852C31.7818 27.7911 33.6457 23.734 33.6457 19.2576C33.6457 14.9976 31.9586 11.1297 29.2104 8.2627Z" fill="url(#paint3_linear)"/>
<path d="M43.6211 10.9961L46.7817 10.9961L46.7817 19.0639L54.3981 10.9961L58.3618 10.9961L51.3671 18.2519L58.6208 27.7604L54.7349 27.7604L49.191 20.426L46.7817 22.9145L46.7817 27.7604L43.6211 27.7604L43.6211 10.9961Z" fill="white"/>
<path d="M58.3361 27.6294L54.8128 27.6294L49.1912 20.2164L46.6265 22.862L46.6265 27.6294L43.7509 27.6294L43.7509 11.1532L46.6265 11.1532L46.6265 19.4306L54.4501 11.1532L58.0252 11.1532L51.16 18.2518L58.3361 27.6294ZM58.906 27.9175L58.5433 27.446L51.5486 18.2518L58.2324 11.3366L58.6988 10.8389L58.0252 10.8389L54.4501 10.8389L54.3206 10.8389L54.2429 10.9174L46.9373 18.7233L46.9373 11.1532L46.9373 10.8651L46.6524 10.8651L43.7768 10.8651L43.4918 10.8651L43.4918 11.1532L43.4918 27.6294L43.4918 27.9175L43.7768 27.9175L46.6524 27.9175L46.9373 27.9175L46.9373 27.6294L46.9373 22.9668L49.1912 20.6617L54.6056 27.8127L54.6833 27.9175L54.8128 27.9175L58.3361 27.9175L58.906 27.9175Z" fill="black"/>
<path d="M61.8337 10.9961L64.9943 10.9961L64.9943 17.859L72.5589 17.859L72.5589 10.9961L75.7195 10.9961L75.7195 27.7604L72.5589 27.7604L72.5589 20.8189L64.9943 20.8189L64.9943 27.7604L61.8337 27.7604L61.8337 10.9961Z" fill="white"/>
<path d="M75.5895 27.6295L72.714 27.6295L72.714 20.6881L64.8644 20.6881L64.8644 27.6295L61.9629 27.6295L61.9629 11.1534L64.8385 11.1534L64.8385 18.0163L72.688 18.0163L72.688 11.1534L75.5636 11.1534L75.5636 27.6295L75.5895 27.6295ZM75.8745 27.9177L75.8745 27.6295L75.8745 11.1534L75.8745 10.8652L75.5895 10.8652L72.714 10.8652L72.429 10.8652L72.429 11.1534L72.429 17.7281L65.1493 17.7281L65.1493 11.1534L65.1493 10.8652L64.8644 10.8652L61.9629 10.8652L61.6779 10.8652L61.6779 11.1534L61.6779 27.6295L61.6779 27.9177L61.9629 27.9177L64.8385 27.9177L65.1234 27.9177L65.1234 27.6295L65.1234 20.9762L72.4031 20.9762L72.4031 27.6295L72.4031 27.9177L72.688 27.9177L75.5636 27.9177L75.8745 27.9177Z" fill="black"/>
<path d="M80.1234 19.3783C80.1234 14.5324 83.9576 10.708 88.8797 10.708C93.8537 10.708 97.5842 14.4014 97.5842 19.3259L97.5842 19.3783C97.5842 24.2242 93.7501 28.0486 88.8279 28.0486C83.8539 28.0486 80.1234 24.3552 80.1234 19.4307L80.1234 19.3783ZM94.2682 19.3783C94.2682 16.1302 91.9367 13.668 88.8279 13.668C85.7451 13.668 83.4394 16.104 83.4394 19.3259L83.4394 19.3783C83.4394 22.6264 85.771 25.0624 88.8797 25.0624C91.9626 25.0625 94.2682 22.6264 94.2682 19.4045L94.2682 19.3783Z" fill="white"/>
<path d="M97.4284 19.3784C97.4284 24.0148 93.8533 27.8915 88.8275 27.8915C83.7758 27.8915 80.2526 24.0672 80.2526 19.4046L80.2526 19.3522C80.2526 14.7158 83.8276 10.8391 88.8534 10.8391C93.9052 10.8391 97.4284 14.6634 97.4284 19.326L97.4284 19.3784ZM83.2836 19.3522L83.2836 19.4046C83.2836 22.6003 85.6152 25.2459 88.8794 25.2459C92.1435 25.2459 94.4233 22.6527 94.4233 19.457L94.4233 19.4046C94.4233 16.2089 92.0917 13.5371 88.8275 13.5371C85.5634 13.5371 83.2836 16.1303 83.2836 19.3522ZM97.7134 19.3784L97.7134 19.326C97.7134 14.3491 93.9052 10.5771 88.8794 10.5771C86.3924 10.5771 84.1385 11.4939 82.4805 13.1966C80.8743 14.8468 79.9935 17.0471 79.9935 19.4046L79.9935 19.457C79.9935 24.4601 83.8017 28.2321 88.8534 28.2321C91.3404 28.2321 93.5943 27.3153 95.2523 25.6126C96.8326 23.9362 97.7134 21.7359 97.7134 19.3784ZM83.5686 19.3522C83.5686 16.2089 85.8224 13.8252 88.8275 13.8252C91.8586 13.8252 94.1383 16.2089 94.1383 19.4046L94.1383 19.457C94.1383 22.6003 91.8845 24.9578 88.8794 24.9578C85.8483 24.9578 83.5686 22.5741 83.5686 19.4046L83.5686 19.3522Z" fill="black"/>
<path d="M101.962 10.9961L109.423 10.9961C111.47 10.9961 113.128 11.5724 114.268 12.6725C115.174 13.6155 115.667 14.8728 115.667 16.3397L115.667 16.3921C115.667 18.8806 114.319 20.688 111.858 21.4738L116.34 27.7604L112.558 27.7604L108.542 22.0239L105.149 22.0239L105.149 27.7604L101.988 27.7604L101.988 10.9961L101.962 10.9961ZM105.123 19.1687L109.216 19.1687C111.185 19.1687 112.454 18.1471 112.454 16.5493L112.454 16.4969C112.454 14.8205 111.288 13.9037 109.19 13.9037L105.123 13.9037L105.123 19.1687Z" fill="white"/>
<path d="M116.081 27.6295L112.661 27.6295L108.594 21.893L104.967 21.893L104.967 27.6295L102.118 27.6295L102.118 11.1534L109.423 11.1534C111.496 11.1534 113.102 11.7558 114.164 12.8036C115.045 13.6942 115.537 14.9253 115.537 16.366L115.537 16.4184C115.537 19.1164 113.905 20.7405 111.651 21.4215L116.081 27.6295ZM104.993 13.7728L104.993 19.2998L109.216 19.2998C111.288 19.2998 112.584 18.2258 112.584 16.5494L112.584 16.497C112.584 14.742 111.314 13.7728 109.19 13.7728L104.993 13.7728ZM116.625 27.9177L116.288 27.4724L112.091 21.5525C114.501 20.7143 115.822 18.9069 115.822 16.3922L115.822 16.3398C115.822 14.8468 115.33 13.5632 114.371 12.5941C113.205 11.4677 111.496 10.8652 109.423 10.8652L102.118 10.8652L101.833 10.8652L101.833 11.1534L101.833 27.6295L101.833 27.9177L102.118 27.9177L104.993 27.9177L105.278 27.9177L105.278 27.6295L105.278 22.1811L108.465 22.1811L112.428 27.8129L112.506 27.9439L112.661 27.9439L116.081 27.9439L116.625 27.9439L116.625 27.9177ZM105.278 14.0609L109.19 14.0609C110.356 14.0609 112.299 14.3753 112.299 16.497L112.299 16.5494C112.299 18.0686 111.107 19.0116 109.216 19.0116L105.278 19.0116L105.278 14.0609Z" fill="black"/>
<path d="M102.118 27.6295L102.118 11.1534L103.283 11.1534L103.283 27.6295L102.118 27.6295ZM113.801 27.6295L109.76 21.893L108.594 21.893L112.635 27.6295L113.801 27.6295ZM95.5633 19.4569L95.5633 19.4046C95.5633 16.2089 93.2317 13.537 89.9675 13.537C89.7603 13.537 89.5789 13.537 89.3976 13.5632C92.3509 13.8514 94.3975 16.3922 94.3975 19.4046L94.3975 19.4569C94.3975 22.4693 92.3768 24.9315 89.4494 25.2197C89.6308 25.2459 89.838 25.2459 90.0194 25.2459C93.2835 25.2459 95.5633 22.6526 95.5633 19.4569ZM81.4185 19.4569L81.4185 19.4046C81.4185 14.9515 84.7086 11.1796 89.4494 10.8914C89.2681 10.8914 89.0608 10.8652 88.8795 10.8652C83.8278 10.8652 80.2786 14.742 80.2786 19.3784L80.2786 19.4307C80.2786 24.0671 83.8019 27.9177 88.8536 27.9177C89.0608 27.9177 89.2422 27.9177 89.4235 27.8915C84.6568 27.6295 81.4185 23.91 81.4185 19.4569ZM113.749 16.5756L113.749 16.5232C113.749 14.7682 112.48 13.799 110.356 13.799L109.19 13.799C111.314 13.799 112.584 14.7682 112.584 16.5232L112.584 16.5756C112.584 18.252 111.262 19.326 109.216 19.326L110.382 19.326C112.428 19.326 113.749 18.252 113.749 16.5756ZM43.7508 11.1534L43.7508 27.6295L44.9166 27.6295L44.9166 11.1534L43.7508 11.1534ZM72.6881 20.6881L72.6881 27.6295L73.8539 27.6295L73.8539 20.6881L72.6881 20.6881ZM72.6881 18.0163L73.8539 18.0163L73.8539 11.1534L72.6881 11.1534L72.6881 18.0163ZM61.9629 11.1534L61.9629 27.6295L63.1287 27.6295L63.1287 11.1534L61.9629 11.1534ZM49.7093 20.8976L54.8128 27.6557L55.9786 27.6557L50.3569 20.2428L49.7093 20.8976ZM55.6159 11.1534L54.4501 11.1534L47.7922 18.1996L47.7922 19.4307L55.6159 11.1534Z" fill="black"/>
<defs>
<linearGradient id="paint0_linear" x1="0" y1="17.754" x2="33.6048" y2="17.754" gradientUnits="userSpaceOnUse">
<stop offset="0.039106" stop-color="#A06F28"/>
<stop offset="0.0632737" stop-color="#A97A33"/>
<stop offset="0.1572" stop-color="#C89E5A"/>
<stop offset="0.2512" stop-color="#E1BD7C"/>
<stop offset="0.3439" stop-color="#F2D496"/>
<stop offset="0.435" stop-color="#FDE2A6"/>
<stop offset="0.5225" stop-color="#FFE7AC"/>
<stop offset="0.608" stop-color="#FDE2A7"/>
<stop offset="0.6893" stop-color="#F4D598"/>
<stop offset="0.7688" stop-color="#E4C07F"/>
<stop offset="0.8473" stop-color="#CDA460"/>
<stop offset="0.9243" stop-color="#B0813B"/>
<stop offset="0.9609" stop-color="#A06F28"/>
</linearGradient>
<linearGradient id="paint1_linear" x1="1.53409" y1="17.8516" x2="11.4661" y2="17.8516" gradientUnits="userSpaceOnUse">
<stop offset="0.039106" stop-color="#A06F28"/>
<stop offset="0.0632737" stop-color="#A97A33"/>
<stop offset="0.1572" stop-color="#C89E5A"/>
<stop offset="0.2512" stop-color="#E1BD7C"/>
<stop offset="0.3439" stop-color="#F2D496"/>
<stop offset="0.435" stop-color="#FDE2A6"/>
<stop offset="0.5225" stop-color="#FFE7AC"/>
<stop offset="0.608" stop-color="#FDE2A7"/>
<stop offset="0.6893" stop-color="#F4D598"/>
<stop offset="0.7688" stop-color="#E4C07F"/>
<stop offset="0.8473" stop-color="#CDA460"/>
<stop offset="0.9243" stop-color="#B0813B"/>
<stop offset="0.9609" stop-color="#A06F28"/>
</linearGradient>
<linearGradient id="paint2_linear" x1="1.45268e-05" y1="17.754" x2="27.6745" y2="17.754" gradientUnits="userSpaceOnUse">
<stop offset="0.039106" stop-color="#A06F28"/>
<stop offset="0.0632737" stop-color="#A97A33"/>
<stop offset="0.1572" stop-color="#C89E5A"/>
<stop offset="0.2512" stop-color="#E1BD7C"/>
<stop offset="0.3439" stop-color="#F2D496"/>
<stop offset="0.435" stop-color="#FDE2A6"/>
<stop offset="0.5225" stop-color="#FFE7AC"/>
<stop offset="0.608" stop-color="#FDE2A7"/>
<stop offset="0.6893" stop-color="#F4D598"/>
<stop offset="0.7688" stop-color="#E4C07F"/>
<stop offset="0.8473" stop-color="#CDA460"/>
<stop offset="0.9243" stop-color="#B0813B"/>
<stop offset="0.9609" stop-color="#A06F28"/>
</linearGradient>
<linearGradient id="paint3_linear" x1="27.7965" y1="19.479" x2="33.6395" y2="19.479" gradientUnits="userSpaceOnUse">
<stop offset="0.039106" stop-color="#A06F28"/>
<stop offset="0.0632737" stop-color="#A97A33"/>
<stop offset="0.1572" stop-color="#C89E5A"/>
<stop offset="0.2512" stop-color="#E1BD7C"/>
<stop offset="0.3439" stop-color="#F2D496"/>
<stop offset="0.435" stop-color="#FDE2A6"/>
<stop offset="0.5225" stop-color="#FFE7AC"/>
<stop offset="0.608" stop-color="#FDE2A7"/>
<stop offset="0.6893" stop-color="#F4D598"/>
<stop offset="0.7688" stop-color="#E4C07F"/>
<stop offset="0.8473" stop-color="#CDA460"/>
<stop offset="0.9243" stop-color="#B0813B"/>
<stop offset="0.9609" stop-color="#A06F28"/>
</linearGradient>
</defs>
</svg>
