<svg width="20" height="15" viewBox="0 0 20 15" fill="none" xmlns="http://www.w3.org/2000/svg">
<path d="M18.8824 11.8531C18.8824 13.523 17.654 14.8664 16.1363 14.8664C14.0804 14.9629 11.9837 15 9.84252 15C9.73119 15 9.61986 15 9.50853 15C9.3972 15 9.28588 15 9.17455 15C7.03705 15 4.93666 14.9629 2.8808 14.8664C1.36674 14.8664 0.138415 13.5156 0.138415 11.8457C0.0456418 10.5246 0.00482151 9.20352 0.00853245 7.88242C0.00482151 6.56133 0.0456418 5.24024 0.134704 3.91543C0.134704 2.24551 1.36302 0.891017 2.87709 0.891017C5.03685 0.790821 7.25228 0.74629 9.50482 0.750002C11.7611 0.742579 13.9691 0.78711 16.1326 0.891017C17.6503 0.891017 18.8787 2.24551 18.8787 3.91543C18.9677 5.24024 19.0085 6.56133 19.0048 7.88613C19.0122 9.20723 18.9714 10.5283 18.8824 11.8531ZM7.69017 4.24199V11.534L13.071 7.88984L7.69017 4.24199Z" fill="url(#paint0_linear)"/>
<defs>
<linearGradient id="paint0_linear" x1="25.3381" y1="7.8746" x2="0.979985" y2="7.93099" gradientUnits="userSpaceOnUse">
<stop stop-color="#FFE7AF"/>
<stop offset="1" stop-color="#98743F"/>
</linearGradient>
</defs>
</svg>
