<svg width="19" height="15" viewBox="0 0 19 15" fill="none" xmlns="http://www.w3.org/2000/svg">
<path d="M18.8741 11.8531C18.8741 13.523 17.6457 14.8664 16.128 14.8664C14.0721 14.9629 11.9754 15 9.83422 15C9.72289 15 9.61156 15 9.50023 15C9.3889 15 9.27758 15 9.16625 15C7.02875 15 4.92836 14.9629 2.8725 14.8664C1.35843 14.8664 0.130114 13.5156 0.130114 11.8457C0.037341 10.5246 -0.00347927 9.20352 0.000231666 7.88242C-0.00347927 6.56133 0.037341 5.24024 0.126404 3.91543C0.126404 2.24551 1.35472 0.891017 2.86879 0.891017C5.02855 0.790821 7.24398 0.74629 9.49652 0.750002C11.7528 0.742579 13.9608 0.78711 16.1243 0.891017C17.642 0.891017 18.8703 2.24551 18.8703 3.91543C18.9594 5.24024 19.0002 6.56133 18.9965 7.88613C19.0039 9.20723 18.9631 10.5283 18.8741 11.8531ZM7.68187 4.24199V11.534L13.0627 7.88984L7.68187 4.24199Z" fill="url(#paint0_linear)"/>
<defs>
<linearGradient id="paint0_linear" x1="25.3298" y1="7.8746" x2="0.971684" y2="7.93099" gradientUnits="userSpaceOnUse">
<stop stop-color="#FFE7AF"/>
<stop offset="1" stop-color="#98743F"/>
</linearGradient>
</defs>
</svg>
